<?xml version="1.0" encoding="UTF-8"?>
<svg xmlns="http://www.w3.org/2000/svg" viewBox="0 0 1024 1024" width="1024" height="1024">
  <rect width="1024" height="1024" fill="#ffffff" />
  <g id="candidates">
  <path d="M 23.37 39.37 L 988.63 39.37 L 988.63 1012.62 L 23.37 1012.62 Z" fill="none" stroke="rgba(0, 240, 255, 0.35)" stroke-width="2" stroke-dasharray="6,4" />
  <path d="M 325.05 855.72 L 166.94 886.02 L 8.85 951.07" fill="none" stroke="#ef4444" stroke-width="2" stroke-dasharray="4,3" stroke-linecap="round" stroke-linejoin="round" opacity="0.95" />
  <path d="M 693.95 855.72 L 852.05 886.02 L 1010.15 951.07" fill="none" stroke="#ef4444" stroke-width="2" stroke-dasharray="4,3" stroke-linecap="round" stroke-linejoin="round" opacity="0.95" />
  <path d="M 289.00 644.00 L 294.78 652.00" fill="none" stroke="#ef4444" stroke-width="2" stroke-dasharray="4,3" stroke-linecap="round" stroke-linejoin="round" opacity="0.95" />
  <path d="M 292.90 654.00 L 306.22 657.00 L 316.77 664.00" fill="none" stroke="#ef4444" stroke-width="2" stroke-dasharray="4,3" stroke-linecap="round" stroke-linejoin="round" opacity="0.95" />
  <path d="M 732.00 641.00 L 719.44 647.00 L 712.00 659.00 L 702.00 665.00" fill="none" stroke="#ef4444" stroke-width="2" stroke-dasharray="4,3" stroke-linecap="round" stroke-linejoin="round" opacity="0.95" />
  <path d="M 372.48 673.19 L 325.05 855.72" fill="none" stroke="#ef4444" stroke-width="2" stroke-dasharray="4,3" stroke-linecap="round" stroke-linejoin="round" opacity="0.95" />
  <path d="M 646.52 673.19 L 693.95 855.72" fill="none" stroke="#ef4444" stroke-width="2" stroke-dasharray="4,3" stroke-linecap="round" stroke-linejoin="round" opacity="0.95" />
  <path d="M 372.00 477.00 L 373.00 477.00 L 374.00 498.00 L 376.00 480.00 L 377.00 484.00 L 378.00 482.00 L 381.00 493.00 L 382.00 493.00 L 384.00 497.00 L 386.00 480.00 L 387.00 485.00 L 388.00 486.00 L 389.00 484.00 L 391.00 473.00 L 392.00 480.00 L 393.00 481.00 L 394.00 478.00 L 395.00 491.00 L 396.00 482.00 L 397.00 478.00 L 398.00 478.00 L 400.01 496.01 L 401.00 489.00 L 403.00 493.00 L 405.00 492.00 L 406.00 485.00 L 407.00 498.00 L 408.00 490.00 L 409.00 488.00 L 410.00 491.00 L 411.00 491.00 L 412.00 493.00 L 413.00 500.00 L 414.00 477.00 L 416.00 497.00 L 417.00 498.00 L 418.00 492.00 L 419.00 492.00 L 420.00 489.00 L 422.00 497.00 L 424.00 497.00 L 425.00 502.00 L 426.00 499.00 L 427.00 501.00 L 429.00 501.00 L 430.00 503.00 L 432.01 503.00 L 433.00 500.00 L 434.00 500.00 L 435.00 505.00 L 436.00 505.00 L 440.00 500.00 L 441.00 492.00 L 442.00 490.00 L 443.00 507.00 L 444.00 500.00 L 445.00 506.00 L 446.00 491.00 L 447.00 504.00 L 448.00 506.00 L 449.00 501.00 L 450.00 501.00 L 451.00 502.00 L 452.00 507.00 L 455.00 503.00 L 456.00 505.00 L 457.00 505.00 L 458.00 508.00 L 459.00 506.00 L 461.00 508.00 L 464.01 508.00 L 465.00 485.00 L 466.00 485.00 L 467.00 508.00 L 469.00 509.00 L 472.00 509.00 L 474.00 507.00 L 476.00 507.00 L 477.00 485.00 L 478.00 485.00 L 479.00 508.00 L 480.00 507.00 L 484.00 506.00 L 486.00 483.00 L 487.00 481.00 L 488.00 505.00 L 489.00 504.00 L 492.00 504.00 L 493.00 505.00 L 494.00 504.00 L 496.01 504.00 L 497.00 505.00 L 499.00 505.00 L 501.00 507.00 L 504.00 506.00 L 505.00 508.00 L 507.00 507.00 L 511.00 509.00 L 512.00 506.00 L 513.00 507.00 L 514.00 506.00 L 521.00 506.00 L 522.00 508.00 L 523.00 505.00 L 527.00 503.00 L 528.01 504.00 L 535.00 504.00 L 536.00 470.00 L 538.00 471.00 L 539.00 506.00 L 540.00 507.00 L 550.00 507.00 L 551.00 508.00 L 559.00 508.00 L 560.01 498.00 L 561.00 497.00 L 562.00 498.00 L 563.00 497.00 L 564.00 501.00 L 565.00 497.00 L 566.00 497.00 L 567.00 471.00 L 570.00 476.00 L 571.00 474.00 L 572.00 478.00 L 573.00 476.00 L 574.00 480.00 L 575.00 506.00 L 576.00 479.00 L 577.00 482.00 L 578.00 482.00 L 579.00 479.00 L 581.00 484.00 L 583.00 485.00" fill="none" stroke="#ef4444" stroke-width="2" stroke-dasharray="4,3" stroke-linecap="round" stroke-linejoin="round" opacity="0.95" />
  <path d="M 372.00 510.00 L 375.00 516.00 L 377.00 518.00 L 434.00 518.00 L 437.00 517.00 L 441.00 517.00 L 444.00 518.00 L 456.00 518.00 L 459.00 519.00 L 467.00 519.00 L 471.00 520.00 L 477.00 517.22 L 479.00 518.34 L 488.00 518.00 L 496.01 520.00 L 507.00 521.00 L 510.00 520.00 L 524.00 520.00 L 531.00 518.00 L 549.00 518.00 L 552.00 519.00 L 561.00 519.00 L 569.00 517.00 L 574.00 517.00 L 577.00 515.00 L 583.00 516.00" fill="none" stroke="#ef4444" stroke-width="2" stroke-dasharray="4,3" stroke-linecap="round" stroke-linejoin="round" opacity="0.95" />
  <path d="M 372.00 546.00 L 378.00 529.00 L 380.00 529.00 L 383.00 536.00 L 391.00 548.00 L 403.00 563.00 L 409.00 569.00 L 410.00 559.00 L 412.00 561.00 L 413.00 564.00 L 415.00 564.00 L 416.00 530.00 L 417.00 534.00 L 418.00 534.00 L 419.00 532.00 L 421.00 533.00 L 422.00 540.00 L 424.00 531.00 L 425.00 539.00 L 426.00 539.00 L 427.00 531.00 L 428.00 532.00 L 429.00 542.00 L 430.00 535.00 L 431.00 546.00 L 432.01 542.00 L 433.00 541.00 L 434.00 542.00 L 435.00 537.00 L 436.00 537.00 L 438.00 541.00 L 439.00 535.00 L 440.00 536.00 L 441.00 529.00 L 442.00 538.00 L 444.00 536.00 L 445.00 532.00 L 446.00 538.00 L 449.00 542.00 L 450.00 536.00 L 451.00 540.00 L 452.00 540.00 L 453.00 543.00 L 455.00 544.00 L 456.00 555.00 L 457.00 548.00 L 458.00 547.00 L 459.00 560.01 L 460.00 550.00 L 464.01 553.00 L 465.00 546.00 L 466.00 553.00 L 467.00 547.00 L 469.00 557.00 L 470.00 552.00 L 471.00 559.00 L 473.00 536.00 L 474.00 536.00 L 475.00 554.00 L 477.00 556.00 L 479.00 555.00 L 480.00 557.00 L 481.00 554.00 L 483.00 553.00 L 486.00 555.00 L 487.00 534.00 L 488.00 530.00 L 489.00 531.00 L 490.00 545.00 L 491.00 532.00 L 492.00 533.00 L 493.00 548.00 L 494.00 533.00 L 495.00 548.00 L 496.01 548.00 L 497.00 532.00 L 498.00 534.00 L 499.00 533.00 L 500.00 535.00 L 501.00 549.00 L 503.00 549.00 L 504.00 550.00 L 507.00 550.00 L 508.00 549.00 L 511.00 549.00 L 512.00 550.00 L 513.00 549.00 L 515.00 549.00 L 516.00 550.00 L 517.00 549.00 L 520.00 549.00 L 521.00 548.00 L 523.00 549.00 L 525.00 548.00 L 526.00 546.00 L 527.00 554.00 L 529.00 531.00 L 530.00 532.00 L 531.00 554.00 L 534.00 554.00 L 536.00 552.00 L 537.00 554.00 L 539.00 554.00 L 541.00 559.00 L 543.00 559.00 L 545.00 529.00 L 547.00 557.00 L 548.00 552.00 L 549.00 552.00 L 551.00 550.00 L 552.00 554.00 L 553.00 551.00 L 555.00 550.00 L 556.00 553.00 L 558.00 553.00 L 559.00 552.00 L 560.01 557.00 L 562.00 556.00 L 563.00 541.00 L 564.00 556.00 L 565.00 556.00 L 566.00 536.00 L 567.00 552.00 L 568.00 538.00 L 569.00 538.00 L 570.00 540.00 L 571.00 539.00 L 572.00 529.00 L 573.00 537.00 L 574.00 537.00 L 575.00 543.00 L 576.00 532.00 L 578.00 535.00 L 579.00 548.00 L 580.00 528.01 L 581.00 546.00 L 582.00 531.00 L 583.00 532.00" fill="none" stroke="#ef4444" stroke-width="2" stroke-dasharray="4,3" stroke-linecap="round" stroke-linejoin="round" opacity="0.95" />
  <path d="M 325.05 855.72 L 417.27 882.34 L 509.50 888.48 L 601.72 882.34" fill="none" stroke="#ef4444" stroke-width="2" stroke-dasharray="4,3" stroke-linecap="round" stroke-linejoin="round" opacity="0.95" />
  <path d="M 601.72 882.34 L 693.95 855.72" fill="none" stroke="#ef4444" stroke-width="2" stroke-dasharray="4,3" stroke-linecap="round" stroke-linejoin="round" opacity="0.95" />
  <path d="M 472.61 0.00 L 614.90 15.16 L 762.46 147.96" fill="none" stroke="#ef4444" stroke-width="2" stroke-dasharray="4,3" stroke-linecap="round" stroke-linejoin="round" opacity="0.95" />
  <path d="M 319.85 632.51 L 570.92 853.63 L 858.85 1024.00" fill="none" stroke="#ef4444" stroke-width="2" stroke-dasharray="4,3" stroke-linecap="round" stroke-linejoin="round" opacity="0.95" />
  <path d="M 336.96 635.38 L 576.99 846.84 L 852.28 1009.79" fill="none" stroke="#ef4444" stroke-width="2" stroke-dasharray="4,3" stroke-linecap="round" stroke-linejoin="round" opacity="0.95" />
  <path d="M 281.10 615.21 L 566.56 848.45 L 893.93 1024.00" fill="none" stroke="#ef4444" stroke-width="2" stroke-dasharray="4,3" stroke-linecap="round" stroke-linejoin="round" opacity="0.95" />
  <path d="M 264.59 613.75 L 559.55 848.68 L 897.81 1024.00" fill="none" stroke="#ef4444" stroke-width="2" stroke-dasharray="4,3" stroke-linecap="round" stroke-linejoin="round" opacity="0.95" />
  <path d="M 347.15 695.10 L 573.87 885.95 L 838.97 1024.00" fill="none" stroke="#ef4444" stroke-width="2" stroke-dasharray="4,3" stroke-linecap="round" stroke-linejoin="round" opacity="0.95" />
  <path d="M 325.25 748.13 L 558.79 916.52 L 836.58 1024.00" fill="none" stroke="#ef4444" stroke-width="2" stroke-dasharray="4,3" stroke-linecap="round" stroke-linejoin="round" opacity="0.95" />
  <path d="M 252.91 736.84 L 492.87 908.37 L 773.44 1024.00" fill="none" stroke="#ef4444" stroke-width="2" stroke-dasharray="4,3" stroke-linecap="round" stroke-linejoin="round" opacity="0.95" />
  <path d="M 216.09 750.83 L 463.72 916.25 L 753.24 1024.00" fill="none" stroke="#ef4444" stroke-width="2" stroke-dasharray="4,3" stroke-linecap="round" stroke-linejoin="round" opacity="0.95" />
  <path d="M 231.20 765.95 L 453.18 920.83 L 712.72 1024.00" fill="none" stroke="#ef4444" stroke-width="2" stroke-dasharray="4,3" stroke-linecap="round" stroke-linejoin="round" opacity="0.95" />
  <path d="M 176.88 781.56 L 415.67 930.63 L 694.94 1024.00" fill="none" stroke="#ef4444" stroke-width="2" stroke-dasharray="4,3" stroke-linecap="round" stroke-linejoin="round" opacity="0.95" />
  <path d="M 173.27 820.18 L 372.56 945.31 L 605.57 1024.00" fill="none" stroke="#ef4444" stroke-width="2" stroke-dasharray="4,3" stroke-linecap="round" stroke-linejoin="round" opacity="0.95" />
  <path d="M 182.88 763.75 L 438.29 924.21 L 737.78 1024.00" fill="none" stroke="#ef4444" stroke-width="2" stroke-dasharray="4,3" stroke-linecap="round" stroke-linejoin="round" opacity="0.95" />
  <path d="M 149.85 822.48 L 362.56 948.72 L 612.29 1024.00" fill="none" stroke="#ef4444" stroke-width="2" stroke-dasharray="4,3" stroke-linecap="round" stroke-linejoin="round" opacity="0.95" />
  <path d="M 87.73 795.89 L 312.36 932.64 L 569.97 1024.00" fill="none" stroke="#ef4444" stroke-width="2" stroke-dasharray="4,3" stroke-linecap="round" stroke-linejoin="round" opacity="0.95" />
  <path d="M 147.71 809.16 L 378.91 945.59 L 652.26 1024.00" fill="none" stroke="#ef4444" stroke-width="2" stroke-dasharray="4,3" stroke-linecap="round" stroke-linejoin="round" opacity="0.95" />
  <path d="M 129.61 854.52 L 321.05 962.65 L 546.49 1024.00" fill="none" stroke="#ef4444" stroke-width="2" stroke-dasharray="4,3" stroke-linecap="round" stroke-linejoin="round" opacity="0.95" />
  <path d="M 94.30 875.59 L 291.87 977.37 L 529.50 1024.00" fill="none" stroke="#ef4444" stroke-width="2" stroke-dasharray="4,3" stroke-linecap="round" stroke-linejoin="round" opacity="0.95" />
  <path d="M 49.34 843.77 L 251.32 960.03 L 491.30 1024.00" fill="none" stroke="#ef4444" stroke-width="2" stroke-dasharray="4,3" stroke-linecap="round" stroke-linejoin="round" opacity="0.95" />
  <path d="M 714.73 131.14 L 733.85 154.52 L 757.23 173.64" fill="none" stroke="#ef4444" stroke-width="2" stroke-dasharray="4,3" stroke-linecap="round" stroke-linejoin="round" opacity="0.95" />
  </g>
</svg>