<?xml version="1.0" encoding="UTF-8"?>
<svg xmlns="http://www.w3.org/2000/svg" viewBox="0 0 1024 1024" width="1024" height="1024">
  <!-- Clean white paper canvas for pure generated-only sketch -->
  <rect width="1024" height="1024" fill="#ffffff" />
  <g id="realistic-pencil-sketch">
  <path d="M 988.63 39.37 L 988.63 1012.62" fill="none" stroke="#222224" stroke-width="7.35" stroke-linecap="round" stroke-linejoin="round" opacity="0.83" />
  <path d="M 23.37 1012.62 L 23.37 39.37" fill="none" stroke="#222224" stroke-width="7.35" stroke-linecap="round" stroke-linejoin="round" opacity="0.83" />
  <path d="M 23.37 39.37 L 988.63 39.37" fill="none" stroke="#222224" stroke-width="7.35" stroke-linecap="round" stroke-linejoin="round" opacity="0.83" />
  <path d="M 988.63 1012.62 L 23.37 1012.62" fill="none" stroke="#222224" stroke-width="7.35" stroke-linecap="round" stroke-linejoin="round" opacity="0.83" />
  <path d="M 316.77 664.00 L 707.58 663.00 L 718.22 648.00 L 732.00 641.00 L 741.78 630.00 L 751.78 610.00 L 763.00 560.01 L 765.00 499.00 L 769.00 496.01 L 769.00 474.00 L 762.00 416.00 L 742.00 331.00" fill="none" stroke="#222224" stroke-width="4.47" stroke-linecap="round" stroke-linejoin="round" opacity="0.79" />
  <path d="M 267.00 310.00 L 261.00 324.00 L 257.00 343.00 L 257.76 351.00 L 260.56 353.00 L 248.00 398.00 L 249.00 485.00 L 254.78 495.00 L 256.00 512.00 L 261.00 528.01 L 257.00 533.00 L 258.00 539.00 L 262.00 542.00 L 264.00 578.00 L 271.78 587.00 L 276.22 612.00 L 284.22 630.00 L 292.00 637.00 L 289.00 644.00" fill="none" stroke="#222224" stroke-width="4.47" stroke-linecap="round" stroke-linejoin="round" opacity="0.79" />
  <path d="M 742.00 331.00 L 743.46 323.00 L 739.00 319.00 L 738.00 310.00" fill="none" stroke="#222224" stroke-width="4.47" stroke-linecap="round" stroke-linejoin="round" opacity="0.79" />
  <path d="M 292.90 654.00 L 306.22 657.00 L 316.77 664.00" fill="none" stroke="#222224" stroke-width="4.47" stroke-linecap="round" stroke-linejoin="round" opacity="0.79" />
  <path d="M 289.00 644.00 L 294.78 652.00" fill="none" stroke="#222224" stroke-width="4.47" stroke-linecap="round" stroke-linejoin="round" opacity="0.79" />
  <path d="M 372.48 673.19 L 325.05 855.72" fill="none" stroke="#222224" stroke-width="5.23" stroke-linecap="round" stroke-linejoin="round" opacity="0.92" />
  <path d="M 646.52 673.19 L 693.95 855.72" fill="none" stroke="#222224" stroke-width="5.23" stroke-linecap="round" stroke-linejoin="round" opacity="0.92" />
  <path d="M 325.05 855.72 L 166.94 886.02 L 8.85 951.07" fill="none" stroke="#222224" stroke-width="5.22" stroke-linecap="round" stroke-linejoin="round" opacity="0.93" />
  <path d="M 693.95 855.72 L 852.05 886.02 L 1010.15 951.07" fill="none" stroke="#222224" stroke-width="5.22" stroke-linecap="round" stroke-linejoin="round" opacity="0.93" />
  <path d="M 627.00 203.00 L 629.00 189.46 L 630.00 188.27 L 632.00 190.17 L 636.00 198.50 L 638.00 199.17 L 640.00 198.28 L 641.00 199.06 L 644.00 205.73 L 646.00 205.41 L 647.00 206.02 L 650.00 199.08 L 652.00 206.15 L 653.00 207.12 L 655.00 201.58 L 658.00 196.96 L 661.00 209.70 L 662.00 212.00 L 663.00 212.21 L 666.00 193.13 L 667.00 192.94 L 670.00 194.89 L 674.00 204.00 L 675.00 204.43 L 678.00 184.10 L 679.00 188.08 L 681.00 213.73 L 682.00 214.32 L 685.00 191.74 L 686.00 187.01 L 687.00 186.39 L 690.00 193.56 L 693.00 197.61 L 700.00 211.43 L 703.00 197.38 L 704.00 198.55 L 714.00 222.47 L 715.00 222.45 L 717.00 218.27 L 718.00 218.19 L 720.01 221.50 L 721.00 221.14 L 723.00 217.66 L 725.00 220.59 L 726.00 221.01 L 728.00 206.90 L 731.00 192.65 L 732.00 193.75 L 734.00 208.07 L 735.00 209.86 L 738.00 210.61 L 740.00 216.18 L 742.00 217.95 L 743.00 221.38" fill="none" stroke="#222224" stroke-width="6.27" stroke-linecap="round" stroke-linejoin="round" opacity="1.00" />
  <path d="M 260.00 243.25 L 261.00 242.28 L 265.00 240.69 L 266.00 239.29 L 269.00 222.27 L 270.00 223.74 L 272.01 236.37 L 273.00 238.33 L 275.00 229.56 L 278.00 241.92 L 279.00 241.50 L 282.00 231.50 L 283.00 231.08 L 286.00 242.45 L 287.00 241.89 L 289.00 238.55 L 292.00 242.18 L 304.01 216.70 L 313.00 193.11 L 314.00 193.26 L 317.00 224.29 L 319.00 233.65 L 320.00 235.51 L 322.00 231.87 L 324.00 221.40 L 325.00 219.58 L 326.00 219.54 L 328.00 216.22 L 330.00 214.56 L 334.00 204.22 L 335.00 204.43 L 337.00 214.91 L 338.00 216.75 L 339.00 215.47 L 342.00 206.55 L 344.00 203.95 L 347.00 223.05 L 349.00 220.79 L 352.00 237.10 L 358.00 219.70 L 359.00 218.71 L 361.00 232.74 L 362.00 234.89 L 363.00 229.20 L 364.00 227.97 L 366.00 240.24 L 367.00 239.94 L 368.01 237.64 L 373.00 223.39 L 374.00 223.38 L 376.00 238.63" fill="none" stroke="#222224" stroke-width="6.09" stroke-linecap="round" stroke-linejoin="round" opacity="1.00" />
  <path d="M 627.00 211.50 L 629.00 226.12 L 630.00 228.42 L 631.00 228.18 L 633.00 224.22 L 635.00 224.67 L 637.00 223.53 L 639.00 225.03 L 642.00 224.58 L 646.00 228.81 L 649.00 223.80 L 650.00 224.22 L 653.00 228.75 L 655.00 229.11 L 657.00 232.36 L 659.00 237.55 L 661.00 233.93 L 662.00 234.36 L 665.00 239.64 L 666.00 239.95 L 669.00 227.35 L 670.00 228.06 L 678.00 244.00 L 681.00 252.34 L 684.00 255.30 L 686.00 259.00 L 687.00 259.13 L 690.00 235.82 L 691.00 236.34 L 694.00 239.99 L 696.00 244.70 L 698.00 247.44 L 702.00 263.01 L 703.00 263.59 L 704.00 261.38 L 707.00 236.42 L 708.00 236.70 L 713.00 249.33 L 715.00 252.49 L 718.00 236.48 L 719.00 237.77 L 721.00 246.71 L 723.00 246.96 L 725.00 257.76 L 729.00 265.83 L 730.00 266.32 L 732.00 254.39 L 733.00 254.30 L 734.00 257.15 L 735.00 257.80 L 737.00 257.72 L 738.00 258.89 L 739.00 258.99 L 742.00 226.41 L 743.00 224.38" fill="none" stroke="#222224" stroke-width="5.90" stroke-linecap="round" stroke-linejoin="round" opacity="1.00" />
  <path d="M 260.00 247.25 L 261.00 249.57 L 263.00 245.33 L 264.00 246.98 L 267.00 283.64 L 268.00 285.11 L 269.00 284.45 L 272.01 276.35 L 275.00 287.26 L 277.00 285.50 L 279.00 278.79 L 280.00 278.05 L 281.00 280.23 L 282.00 280.73 L 283.00 278.50 L 288.00 264.40 L 291.00 248.35 L 292.00 247.81 L 295.00 277.64 L 296.00 277.11 L 302.00 265.33 L 305.00 264.03 L 307.00 265.20 L 309.00 263.82 L 310.00 264.39 L 311.00 263.91 L 314.00 251.50 L 316.00 247.58 L 318.00 246.61 L 319.00 246.96 L 321.00 258.27 L 322.00 259.80 L 323.00 256.38 L 324.00 256.01 L 327.00 278.16 L 328.00 280.40 L 334.00 268.99 L 335.00 268.25 L 336.01 268.86 L 337.00 268.34 L 340.00 259.33 L 344.00 251.27 L 347.00 262.75 L 350.00 279.77 L 351.00 278.30 L 354.00 266.71 L 356.00 262.40 L 360.00 248.05 L 361.00 248.10 L 362.00 249.54 L 363.00 249.20 L 364.00 247.57 L 365.00 248.16 L 367.00 252.41 L 369.00 264.77 L 370.00 267.78 L 371.00 268.31 L 372.00 267.70 L 373.00 264.01 L 376.00 244.63" fill="none" stroke="#222224" stroke-width="5.80" stroke-linecap="round" stroke-linejoin="round" opacity="1.00" />
  <path d="M 317.00 186.00 L 336.01 150.00 L 338.00 149.00 L 341.00 143.00 L 343.00 142.00 L 348.00 134.00 L 372.00 107.00 L 381.00 99.00 L 382.00 99.00 L 398.00 129.00 L 400.01 128.00 L 403.00 131.00 L 405.00 131.00 L 407.00 135.00 L 422.00 121.00 L 424.00 125.00 L 426.00 125.00 L 430.00 131.00 L 433.00 132.00 L 436.00 138.00 L 442.00 137.00 L 445.00 141.00 L 453.00 138.00 L 467.00 139.00 L 469.00 135.00 L 483.00 135.00 L 493.00 138.00 L 498.00 138.00" fill="none" stroke="#222224" stroke-width="3.51" stroke-linecap="round" stroke-linejoin="round" opacity="0.84" />
  <path d="M 520.00 109.00 L 522.00 112.01 L 526.00 113.00 L 537.00 96.00 L 543.00 99.00 L 546.00 98.00 L 557.00 109.00 L 559.00 109.00 L 563.00 105.00 L 567.00 111.00 L 573.00 111.00 L 579.00 108.00 L 612.00 106.00 L 615.00 110.00 L 621.00 110.00 L 625.00 115.00 L 631.00 118.00 L 635.00 123.00 L 642.00 123.00 L 648.00 134.00 L 669.00 133.00 L 677.00 143.00 L 688.01 163.00" fill="none" stroke="#222224" stroke-width="3.44" stroke-linecap="round" stroke-linejoin="round" opacity="0.83" />
  <path d="M 482.71 417.96 L 495.00 423.08 L 507.29 417.96" fill="none" stroke="#222224" stroke-width="3.68" stroke-linecap="round" stroke-linejoin="round" opacity="0.77" />
  <path d="M 485.79 424.10 L 490.09 427.17 L 492.79 424.10" fill="none" stroke="#222224" stroke-width="3.64" stroke-linecap="round" stroke-linejoin="round" opacity="0.77" />
  <path d="M 497.21 424.10 L 499.92 427.17 L 504.22 424.10" fill="none" stroke="#222224" stroke-width="3.64" stroke-linecap="round" stroke-linejoin="round" opacity="0.77" />
  <path d="M 372.00 477.00 L 373.00 477.00 L 374.00 498.00 L 376.00 480.00 L 377.00 484.00 L 378.00 482.00 L 381.00 493.00 L 382.00 493.00 L 384.00 497.00 L 386.00 480.00 L 387.00 485.00 L 388.00 486.00 L 389.00 484.00 L 391.00 473.00 L 392.00 480.00 L 393.00 481.00 L 394.00 478.00 L 395.00 491.00 L 396.00 482.00 L 397.00 478.00 L 398.00 478.00 L 400.01 496.01 L 401.00 489.00 L 403.00 493.00 L 405.00 492.00 L 406.00 485.00 L 407.00 498.00 L 408.00 490.00 L 409.00 488.00 L 410.00 491.00 L 411.00 491.00 L 412.00 493.00 L 413.00 500.00 L 414.00 477.00 L 416.00 497.00 L 417.00 498.00 L 418.00 492.00 L 419.00 492.00 L 420.00 489.00 L 422.00 497.00 L 424.00 497.00 L 425.00 502.00 L 426.00 499.00 L 427.00 501.00 L 429.00 501.00 L 430.00 503.00 L 432.01 503.00 L 433.00 500.00 L 434.00 500.00 L 435.00 505.00 L 436.00 505.00 L 440.00 500.00 L 441.00 492.00 L 442.00 490.00 L 443.00 507.00 L 444.00 500.00 L 445.00 506.00 L 446.00 491.00 L 447.00 504.00 L 448.00 506.00 L 449.00 501.00 L 450.00 501.00 L 451.00 502.00 L 452.00 507.00 L 455.00 503.00 L 456.00 505.00 L 457.00 505.00 L 458.00 508.00 L 459.00 506.00 L 461.00 508.00 L 464.01 508.00 L 465.00 485.00 L 466.00 485.00 L 467.00 508.00 L 469.00 509.00 L 472.00 509.00 L 474.00 507.00 L 476.00 507.00 L 477.00 485.00 L 478.00 485.00 L 479.00 508.00 L 480.00 507.00 L 484.00 506.00 L 486.00 483.00 L 487.00 481.00 L 488.00 505.00 L 489.00 504.00 L 492.00 504.00 L 493.00 505.00 L 494.00 504.00 L 496.01 504.00 L 497.00 505.00 L 499.00 505.00 L 501.00 507.00 L 504.00 506.00 L 505.00 508.00 L 507.00 507.00 L 511.00 509.00 L 512.00 506.00 L 513.00 507.00 L 514.00 506.00 L 521.00 506.00 L 522.00 508.00 L 523.00 505.00 L 527.00 503.00 L 528.01 504.00 L 535.00 504.00 L 536.00 470.00 L 538.00 471.00 L 539.00 506.00 L 540.00 507.00 L 550.00 507.00 L 551.00 508.00 L 559.00 508.00 L 560.01 498.00 L 561.00 497.00 L 562.00 498.00 L 563.00 497.00 L 564.00 501.00 L 565.00 497.00 L 566.00 497.00 L 567.00 471.00 L 570.00 476.00 L 571.00 474.00 L 572.00 478.00 L 573.00 476.00 L 574.00 480.00 L 575.00 506.00 L 576.00 479.00 L 577.00 482.00 L 578.00 482.00 L 579.00 479.00 L 581.00 484.00 L 583.00 485.00" fill="none" stroke="#222224" stroke-width="4.86" stroke-linecap="round" stroke-linejoin="round" opacity="0.91" />
  <path d="M 372.00 510.00 L 375.00 516.00 L 377.00 518.00 L 434.00 518.00 L 437.00 517.00 L 441.00 517.00 L 444.00 518.00 L 456.00 518.00 L 459.00 519.00 L 467.00 519.00 L 471.00 520.00 L 477.00 517.22 L 479.00 518.34 L 488.00 518.00 L 496.01 520.00 L 507.00 521.00 L 510.00 520.00 L 524.00 520.00 L 531.00 518.00 L 549.00 518.00 L 552.00 519.00 L 561.00 519.00 L 569.00 517.00 L 574.00 517.00 L 577.00 515.00 L 583.00 516.00" fill="none" stroke="#222224" stroke-width="4.93" stroke-linecap="round" stroke-linejoin="round" opacity="0.91" />
  <path d="M 372.00 546.00 L 378.00 529.00 L 380.00 529.00 L 383.00 536.00 L 391.00 548.00 L 403.00 563.00 L 409.00 569.00 L 410.00 559.00 L 412.00 561.00 L 413.00 564.00 L 415.00 564.00 L 416.00 530.00 L 417.00 534.00 L 418.00 534.00 L 419.00 532.00 L 421.00 533.00 L 422.00 540.00 L 424.00 531.00 L 425.00 539.00 L 426.00 539.00 L 427.00 531.00 L 428.00 532.00 L 429.00 542.00 L 430.00 535.00 L 431.00 546.00 L 432.01 542.00 L 433.00 541.00 L 434.00 542.00 L 435.00 537.00 L 436.00 537.00 L 438.00 541.00 L 439.00 535.00 L 440.00 536.00 L 441.00 529.00 L 442.00 538.00 L 444.00 536.00 L 445.00 532.00 L 446.00 538.00 L 449.00 542.00 L 450.00 536.00 L 451.00 540.00 L 452.00 540.00 L 453.00 543.00 L 455.00 544.00 L 456.00 555.00 L 457.00 548.00 L 458.00 547.00 L 459.00 560.01 L 460.00 550.00 L 464.01 553.00 L 465.00 546.00 L 466.00 553.00 L 467.00 547.00 L 469.00 557.00 L 470.00 552.00 L 471.00 559.00 L 473.00 536.00 L 474.00 536.00 L 475.00 554.00 L 477.00 556.00 L 479.00 555.00 L 480.00 557.00 L 481.00 554.00 L 483.00 553.00 L 486.00 555.00 L 487.00 534.00 L 488.00 530.00 L 489.00 531.00 L 490.00 545.00 L 491.00 532.00 L 492.00 533.00 L 493.00 548.00 L 494.00 533.00 L 495.00 548.00 L 496.01 548.00 L 497.00 532.00 L 498.00 534.00 L 499.00 533.00 L 500.00 535.00 L 501.00 549.00 L 503.00 549.00 L 504.00 550.00 L 507.00 550.00 L 508.00 549.00 L 511.00 549.00 L 512.00 550.00 L 513.00 549.00 L 515.00 549.00 L 516.00 550.00 L 517.00 549.00 L 520.00 549.00 L 521.00 548.00 L 523.00 549.00 L 525.00 548.00 L 526.00 546.00 L 527.00 554.00 L 529.00 531.00 L 530.00 532.00 L 531.00 554.00 L 534.00 554.00 L 536.00 552.00 L 537.00 554.00 L 539.00 554.00 L 541.00 559.00 L 543.00 559.00 L 545.00 529.00 L 547.00 557.00 L 548.00 552.00 L 549.00 552.00 L 551.00 550.00 L 552.00 554.00 L 553.00 551.00 L 555.00 550.00 L 556.00 553.00 L 558.00 553.00 L 559.00 552.00 L 560.01 557.00 L 562.00 556.00 L 563.00 541.00 L 564.00 556.00 L 565.00 556.00 L 566.00 536.00 L 567.00 552.00 L 568.00 538.00 L 569.00 538.00 L 570.00 540.00 L 571.00 539.00 L 572.00 529.00 L 573.00 537.00 L 574.00 537.00 L 575.00 543.00 L 576.00 532.00 L 578.00 535.00 L 579.00 548.00 L 580.00 528.01 L 581.00 546.00 L 582.00 531.00 L 583.00 532.00" fill="none" stroke="#222224" stroke-width="4.71" stroke-linecap="round" stroke-linejoin="round" opacity="0.90" />
  <path d="M 629.00 187.11 L 630.00 186.29 L 632.00 187.15 L 635.00 193.21 L 638.00 193.29 L 640.00 190.71 L 641.00 191.17 L 642.00 191.90 L 644.00 197.61 L 645.00 195.10 L 646.00 194.34 L 647.00 196.60 L 650.00 185.92 L 651.00 186.95 L 652.00 194.51 L 653.00 194.82 L 654.00 188.89 L 655.00 186.72 L 656.00 186.05 L 658.00 180.02 L 661.00 193.42 L 663.00 196.25 L 666.00 173.34 L 668.00 175.06 L 670.00 175.08 L 673.00 182.22 L 675.00 185.38 L 676.00 180.98 L 678.00 160.49 L 679.00 163.64 L 681.00 195.74 L 682.00 194.68 L 686.00 164.62 L 687.00 164.89 L 690.00 173.06 L 692.00 175.24 L 695.00 180.88 L 700.00 193.33 L 703.00 177.33 L 713.00 205.91 L 715.00 208.47 L 717.00 203.82 L 718.00 204.50 L 720.00 209.66 L 721.00 209.89 L 723.00 206.10 L 726.00 213.10 L 727.00 208.62 L 728.00 196.89 L 729.00 192.68 L 730.00 192.46 L 731.00 183.75 L 732.00 184.79 L 733.00 198.35 L 734.00 203.90 L 736.00 207.01 L 737.00 206.33 L 738.00 207.14 L 740.00 215.29 L 741.00 216.10" fill="none" stroke="#222224" stroke-width="3.78" stroke-linecap="round" stroke-linejoin="round" opacity="1.00" />
  <path d="M 262.00 240.87 L 266.00 237.12 L 269.00 215.96 L 270.00 217.16 L 272.00 231.08 L 273.00 233.04 L 275.00 218.99 L 276.00 222.23 L 277.00 230.46 L 278.00 232.96 L 279.00 231.71 L 282.00 219.27 L 283.00 218.06 L 286.00 229.97 L 289.00 223.22 L 290.00 223.32 L 291.00 226.45 L 292.00 227.07 L 295.00 218.03 L 306.00 192.19 L 309.00 182.22 L 314.00 170.23 L 317.00 204.62 L 318.00 207.10 L 319.00 213.86 L 320.00 215.63 L 321.00 212.92 L 322.00 211.98 L 324.00 199.13 L 325.00 198.73 L 326.00 199.84 L 328.00 195.86 L 329.00 195.02 L 330.00 195.19 L 333.00 186.81 L 335.00 184.28 L 337.00 198.31 L 338.00 199.34 L 340.00 195.71 L 341.00 191.27 L 344.00 186.33 L 347.00 209.97 L 349.00 205.29 L 352.00 226.10 L 359.00 207.72 L 360.00 213.23 L 361.00 226.74 L 362.00 230.01 L 363.00 220.29 L 364.00 218.33 L 366.00 236.41 L 368.00 233.26 L 373.00 221.31 L 374.00 220.62" fill="none" stroke="#222224" stroke-width="3.69" stroke-linecap="round" stroke-linejoin="round" opacity="1.00" />
  <path d="M 688.59 244.02 L 682.78 254.09 L 671.15 254.09 L 665.34 244.02 L 671.15 233.95 L 682.78 233.95 L 688.59 244.02" fill="none" stroke="#222224" stroke-width="3.80" stroke-linecap="round" stroke-linejoin="round" opacity="1.00" />
  <path d="M 697.68 255.75 L 694.41 261.11 L 690.03 265.39 L 684.84 268.33 L 679.16 269.74 L 673.33 269.54 L 667.73 267.74 L 662.71 264.44 L 658.60 259.86 L 655.63 254.28 L 654.00 248.06" fill="none" stroke="#222224" stroke-width="3.75" stroke-linecap="round" stroke-linejoin="round" opacity="1.00" />
  <path d="M 333.54 233.98 L 327.79 243.94 L 316.30 243.94 L 310.56 233.98 L 316.30 224.03 L 327.79 224.03 L 333.54 233.98" fill="none" stroke="#222224" stroke-width="3.71" stroke-linecap="round" stroke-linejoin="round" opacity="1.00" />
  <path d="M 342.53 245.58 L 339.29 250.87 L 334.97 255.11 L 329.83 258.02 L 324.21 259.41 L 318.45 259.21 L 312.92 257.42 L 307.96 254.17 L 303.88 249.64 L 300.95 244.13 L 299.35 237.98" fill="none" stroke="#222224" stroke-width="3.66" stroke-linecap="round" stroke-linejoin="round" opacity="1.00" />
  <path d="M 389.00 113.00 L 408.44 95.42" fill="none" stroke="#222224" stroke-width="2.32" stroke-linecap="round" stroke-linejoin="round" opacity="0.82" />
  <path d="M 520.00 109.00 L 508.78 86.99" fill="none" stroke="#222224" stroke-width="2.29" stroke-linecap="round" stroke-linejoin="round" opacity="0.81" />
  <path d="M 553.00 105.00 L 537.98 85.38" fill="none" stroke="#222224" stroke-width="2.29" stroke-linecap="round" stroke-linejoin="round" opacity="0.81" />
  <path d="M 587.00 108.00 L 568.67 91.43" fill="none" stroke="#222224" stroke-width="2.29" stroke-linecap="round" stroke-linejoin="round" opacity="0.81" />
  <path d="M 620.00 110.00 L 598.98 97.02" fill="none" stroke="#222224" stroke-width="2.29" stroke-linecap="round" stroke-linejoin="round" opacity="0.81" />
  <path d="M 353.00 129.00 L 368.94 108.19" fill="none" stroke="#222224" stroke-width="2.32" stroke-linecap="round" stroke-linejoin="round" opacity="0.82" />
  <path d="M 425.00 125.00 L 447.31 111.23" fill="none" stroke="#222224" stroke-width="2.32" stroke-linecap="round" stroke-linejoin="round" opacity="0.82" />
  <path d="M 461.00 138.00 L 485.44 128.51" fill="none" stroke="#222224" stroke-width="2.32" stroke-linecap="round" stroke-linejoin="round" opacity="0.82" />
  <path d="M 498.00 138.00 L 523.76 133.09" fill="none" stroke="#222224" stroke-width="2.32" stroke-linecap="round" stroke-linejoin="round" opacity="0.82" />
  <path d="M 654.00 134.00 L 630.97 125.05" fill="none" stroke="#222224" stroke-width="2.29" stroke-linecap="round" stroke-linejoin="round" opacity="0.81" />
  <path d="M 317.00 186.00 L 328.90 162.64" fill="none" stroke="#222224" stroke-width="2.32" stroke-linecap="round" stroke-linejoin="round" opacity="0.82" />
  <path d="M 688.01 163.00 L 663.74 158.37" fill="none" stroke="#222224" stroke-width="2.29" stroke-linecap="round" stroke-linejoin="round" opacity="0.81" />
  <path d="M 426.00 353.00 L 432.01 345.00 L 438.00 353.00" fill="none" stroke="#222224" stroke-width="2.41" stroke-linecap="round" stroke-linejoin="round" opacity="0.75" />
  <path d="M 485.17 425.12 L 495.00 428.20 L 504.83 425.12" fill="none" stroke="#222224" stroke-width="2.46" stroke-linecap="round" stroke-linejoin="round" opacity="0.76" />
  <path d="M 524.00 458.00 L 530.00 450.00 L 536.00 458.00" fill="none" stroke="#222224" stroke-width="2.32" stroke-linecap="round" stroke-linejoin="round" opacity="0.75" />
  <path d="M 368.93 508.98 L 372.00 510.00" fill="none" stroke="#222224" stroke-width="3.16" stroke-linecap="round" stroke-linejoin="round" opacity="0.90" />
  <path d="M 583.00 516.00 L 586.08 514.98" fill="none" stroke="#222224" stroke-width="3.16" stroke-linecap="round" stroke-linejoin="round" opacity="0.90" />
  <path d="M 464.64 569.29 L 480.00 572.36 L 495.36 569.29" fill="none" stroke="#222224" stroke-width="3.09" stroke-linecap="round" stroke-linejoin="round" opacity="0.90" />
  <path d="M 325.05 855.72 L 417.27 882.34 L 509.50 888.48 L 601.72 882.34" fill="none" stroke="#222224" stroke-width="2.98" stroke-linecap="round" stroke-linejoin="round" opacity="0.70" />
  <path d="M 601.72 882.34 L 693.95 855.72" fill="none" stroke="#222224" stroke-width="2.98" stroke-linecap="round" stroke-linejoin="round" opacity="0.70" />
  </g>
</svg>